<svg width="25" height="25" viewBox="0 0 25 25" fill="none" xmlns="http://www.w3.org/2000/svg">
    <path d="M23.5384 19.2594C23.6978 18.0727 23.6978 16.5565 23.6978 14.6421V14.5246C23.6978 12.6102 23.6978 11.094 23.5384 9.90728C23.3741 8.68601 23.0281 7.69752 22.2487 6.91797L23.5384 19.2594ZM23.5384 19.2594C23.3741 20.4806 23.0281 21.4692 22.2487 22.2488L23.5384 19.2594ZM14.9167 1.18712L14.89 1.38529L14.9167 1.18712C14.2838 1.10203 13.4924 1.10206 12.567 1.10209L12.5541 1.10209H12.4458L12.4328 1.10209C11.5075 1.10206 10.7161 1.10203 10.0832 1.18712L10.1061 1.35752L10.0832 1.18712C9.40717 1.27801 8.76745 1.48184 8.2496 1.99969C7.73175 2.51755 7.52792 3.15726 7.43703 3.83328C7.38011 4.25663 7.36141 4.74871 7.35516 5.30197C6.75274 5.32491 6.20665 5.36381 5.71388 5.43007C4.47049 5.59723 3.43273 5.95362 2.60979 6.77655L2.74904 6.91579L2.60979 6.77655C1.78686 7.59948 1.43047 8.63725 1.26331 9.88063C1.10196 11.0806 1.10198 12.6078 1.102 14.5102L1.102 14.5246V14.6421L1.102 14.6565C1.10198 16.5588 1.10196 18.086 1.26331 19.286C1.43047 20.5294 1.78686 21.5672 2.60979 22.3902L2.74475 22.2552L2.6098 22.3902C3.43273 23.213 4.47049 23.5694 5.71386 23.7367L5.71388 23.7367C6.91384 23.8979 8.441 23.8979 10.3432 23.8979H10.3578H14.642H14.6566C16.5589 23.8979 18.086 23.8979 19.2859 23.7367L19.286 23.7367C20.5293 23.5694 21.5671 23.213 22.3901 22.3902L22.3901 22.3902C23.213 21.5672 23.5693 20.5294 23.7366 19.286L23.7366 19.286C23.8978 18.0861 23.8978 16.559 23.8978 14.6567V14.6421V14.5246V14.51C23.8978 12.6077 23.8978 11.0806 23.7366 9.88064L23.7366 9.88062C23.5693 8.63725 23.213 7.59949 22.3901 6.77656L22.2551 6.91154L22.3901 6.77654C21.5671 5.95362 20.5293 5.59723 19.2859 5.43007C18.7931 5.36381 18.2471 5.32491 17.6447 5.30197C17.6384 4.74871 17.6197 4.25663 17.5628 3.83328C17.4719 3.15725 17.2681 2.51754 16.7502 1.99969C16.2324 1.48184 15.5927 1.27801 14.9167 1.18712ZM9.6373 3.38739L9.6373 3.38739C9.7298 3.29488 9.88641 3.19374 10.3447 3.13212C10.8314 3.06669 11.4899 3.06459 12.4999 3.06459C13.5099 3.06459 14.1685 3.06669 14.6551 3.13212L14.6818 2.93391L14.6551 3.13212C15.1135 3.19374 15.2701 3.29489 15.3625 3.38738C15.455 3.47989 15.5562 3.63651 15.6179 4.0948C15.659 4.40067 15.6752 4.77696 15.6815 5.26982C15.3508 5.26876 15.0068 5.26876 14.6492 5.26876H14.642H10.3578H10.3506C9.99307 5.26876 9.64905 5.26876 9.31837 5.26982C9.32464 4.77696 9.34091 4.40065 9.38203 4.09478C9.44364 3.63651 9.54479 3.4799 9.6373 3.38739ZM3.99748 8.16426L3.85606 8.02283L3.99749 8.16426C4.39502 7.76672 4.94963 7.51297 5.97537 7.37506C7.02941 7.23336 8.42458 7.23126 10.4166 7.23126H14.5833C16.5752 7.23126 17.9704 7.23336 19.0245 7.37506C20.0502 7.51297 20.6048 7.76672 21.0023 8.16425L21.1343 8.03226L21.0024 8.16426C21.3999 8.56178 21.6537 9.11639 21.7915 10.1421C21.9332 11.1962 21.9353 12.5914 21.9353 14.5833C21.9353 16.5753 21.9332 17.9705 21.7915 19.0246C21.6537 20.0503 21.3999 20.6049 21.0024 21.0024C20.6048 21.4 20.0502 21.6537 19.0245 21.7916C17.9704 21.9333 16.5752 21.9354 14.5833 21.9354H10.4166C8.42458 21.9354 7.02941 21.9333 5.97538 21.7916C4.94963 21.6537 4.39502 21.4 3.99748 21.0024C3.59995 20.6049 3.3462 20.0503 3.2083 19.0246C3.06659 17.9705 3.0645 16.5753 3.0645 14.5833C3.0645 12.5914 3.06659 11.1962 3.2083 10.1421L3.01009 10.1155L3.2083 10.1421C3.3462 9.11639 3.59995 8.56178 3.99748 8.16426Z" fill="white" stroke="white" stroke-width="0.4"/>
    <path d="M13.2957 10.2812C13.2957 9.84978 12.9459 9.5 12.5145 9.5C12.083 9.5 11.7332 9.84978 11.7332 10.2812V10.2919C10.5991 10.5776 9.6499 11.4719 9.6499 12.7118C9.6499 14.2295 11.0719 15.2292 12.5145 15.2292C13.373 15.2292 13.8166 15.784 13.8166 16.1841C13.8166 16.5841 13.373 17.1389 12.5145 17.1389C11.6559 17.1389 11.2124 16.5841 11.2124 16.1841C11.2124 15.7526 10.8626 15.4028 10.4312 15.4028C9.99968 15.4028 9.6499 15.7526 9.6499 16.1841C9.6499 17.424 10.5991 18.3182 11.7332 18.604V18.6146C11.7332 19.046 12.083 19.3958 12.5145 19.3958C12.9459 19.3958 13.2957 19.046 13.2957 18.6146V18.604C14.4299 18.3182 15.3791 17.424 15.3791 16.1841C15.3791 14.6665 13.9571 13.6667 12.5145 13.6667C11.6559 13.6667 11.2124 13.1119 11.2124 12.7118C11.2124 12.3118 11.6559 11.757 12.5145 11.757C13.373 11.757 13.8166 12.3118 13.8166 12.7118C13.8166 13.1432 14.1664 13.493 14.5978 13.493C15.0293 13.493 15.3791 13.1432 15.3791 12.7118C15.3791 11.4719 14.4299 10.5776 13.2957 10.2919V10.2812Z" fill="white"/>
</svg>
