<svg width="24" height="24" viewBox="0 0 24 24" fill="none" xmlns="http://www.w3.org/2000/svg">
<path d="M8.66659 8.66667V5.55578C8.66659 4.31121 8.66659 3.68847 8.9088 3.21311C9.12184 2.79497 9.46155 2.45526 9.87969 2.24221C10.355 2 10.9778 2 12.2223 2H18.4445C19.689 2 20.311 2 20.7863 2.24221C21.2045 2.45526 21.5448 2.79497 21.7578 3.21311C22 3.68847 22 4.31074 22 5.55531V11.7776C22 13.0221 22 13.6444 21.7578 14.1198C21.5448 14.5379 21.2041 14.8783 20.786 15.0913C20.3111 15.3333 19.6898 15.3333 18.4477 15.3333H15.3332M8.66659 8.66667H5.55574C4.31119 8.66667 3.68845 8.66667 3.2131 8.90888C2.79496 9.12192 2.45525 9.46163 2.24221 9.87978C2 10.3551 2 10.9779 2 12.2224V18.4447C2 19.6892 2 20.3112 2.24221 20.7866C2.45525 21.2047 2.79496 21.545 3.2131 21.758C3.68798 22 4.30996 22 5.55208 22H11.7817C13.0238 22 13.6449 22 14.1198 21.758C14.5379 21.545 14.8782 21.2043 15.0912 20.7862C15.3332 20.3113 15.3332 19.69 15.3332 18.4479V15.3333M8.66659 8.66667H11.7779C13.0224 8.66667 13.6444 8.66667 14.1198 8.90888C14.5379 9.12192 14.8782 9.46163 15.0912 9.87978C15.3332 10.3547 15.3332 10.9767 15.3332 12.2188V15.3333" stroke="#4AB3FF" stroke-width="3" stroke-linecap="round" stroke-linejoin="round"/>
</svg>
