<svg width="149" height="149" viewBox="0 0 149 149" fill="none" xmlns="http://www.w3.org/2000/svg">
<circle cx="74.5" cy="74.5" r="68.5" fill="#DC2A2A" fill-opacity="0.25" stroke="#DC2A2A" stroke-width="12"/>
<path fill-rule="evenodd" clip-rule="evenodd" d="M86.6019 74.495L97.7053 63.4013C100.769 60.3437 100.769 55.3655 97.7053 52.3079C94.6379 49.2307 89.6674 49.2307 86.6019 52.3079L75.5005 63.4013L64.3991 52.3079C61.3356 49.2307 56.365 49.2307 53.2976 52.3079C50.2341 55.3655 50.2341 60.3437 53.2976 63.4013L64.3991 74.495L53.2976 85.6083C50.2341 88.6659 50.2341 93.6443 53.2976 96.7019C56.365 99.7791 61.3356 99.7791 64.3991 96.7019L75.5005 85.6083L86.6019 96.7019C89.6674 99.7791 94.6379 99.7791 97.7053 96.7019C100.769 93.6443 100.769 88.6659 97.7053 85.6083L86.6019 74.495Z" fill="#DC2A2A"/>
</svg>
