<svg width="28" height="29" viewBox="0 0 28 29" fill="none" xmlns="http://www.w3.org/2000/svg">
<path d="M2.67786 15.8106C2.31935 16.0375 2.02254 16.3582 1.81618 16.7415C1.60983 17.1248 1.50092 17.5578 1.5 17.9984V22.1438C1.50092 22.5845 1.60983 23.0174 1.81618 23.4007C2.02254 23.784 2.31935 24.1047 2.67786 24.3317L6.32071 26.6346C6.69843 26.8737 7.13078 27.0001 7.57143 27.0001C8.01208 27.0001 8.44442 26.8737 8.82214 26.6346L13.6429 23.5896V16.5527L7.57143 12.7144L2.67786 15.8106Z" stroke="#4EB4FF" stroke-width="2.2" stroke-linecap="round" stroke-linejoin="round"/>
<path d="M7.21436 19.8571L13.6429 16.2856" stroke="#4EB4FF" stroke-width="2.2" stroke-linecap="round" stroke-linejoin="round"/>
<path d="M7.21436 19.8569V26.9998" stroke="#4EB4FF" stroke-width="2.2" stroke-linecap="round" stroke-linejoin="round"/>
<path d="M13.6428 16.5527V23.5896L18.7471 26.6346C19.147 26.8737 19.6048 27.0001 20.0714 27.0001C20.538 27.0001 20.9957 26.8737 21.3957 26.6346L25.2528 24.3317C25.6324 24.1047 25.9467 23.784 26.1652 23.4007C26.3837 23.0174 26.499 22.5845 26.5 22.1438V17.9984C26.499 17.5578 26.3837 17.1248 26.1652 16.7415C25.9467 16.3582 25.6324 16.0375 25.2528 15.8106L20.0714 12.7144L13.6428 16.5527Z" stroke="#4EB4FF" stroke-width="2.2" stroke-linecap="round" stroke-linejoin="round"/>
<path d="M20.0714 19.8571L13.6428 16.2856" stroke="#4EB4FF" stroke-width="2.2" stroke-linecap="round" stroke-linejoin="round"/>
<path d="M20.0714 19.8569V26.9998" stroke="#4EB4FF" stroke-width="2.2" stroke-linecap="round" stroke-linejoin="round"/>
<path d="M8.4615 4.66842C8.0819 4.89537 7.76763 5.21602 7.54914 5.59932C7.33064 5.98263 7.21533 6.41558 7.21436 6.85626V12.4474L13.6429 16.2857L20.0715 12.4474V6.85626C20.0705 6.41558 19.9552 5.98263 19.7367 5.59932C19.5182 5.21602 19.204 4.89537 18.8244 4.66842L14.9672 2.36543C14.5673 2.12632 14.1095 2 13.6429 2C13.1764 2 12.7186 2.12632 12.3186 2.36543L8.4615 4.66842Z" stroke="#4EB4FF" stroke-width="2.2" stroke-linecap="round" stroke-linejoin="round"/>
<path d="M13.6428 9.14272L7.92847 5.57129" stroke="#4EB4FF" stroke-width="2.2" stroke-linecap="round" stroke-linejoin="round"/>
<path d="M13.6428 16.2859V9.14307" stroke="#4EB4FF" stroke-width="2.2" stroke-linecap="round" stroke-linejoin="round"/>
<path d="M18.8077 5.84619L14 8.73081" stroke="#4EB4FF" stroke-width="2.2" stroke-linecap="round"/>
<path d="M25.5385 16.4231L20.7308 19.3077" stroke="#4EB4FF" stroke-width="2.2" stroke-linecap="round"/>
<path d="M7.26941 20.269L2.46153 17.3847" stroke="#4EB4FF" stroke-width="2.2" stroke-linecap="round"/>
</svg>
