<svg width="149" height="149" viewBox="0 0 149 149" fill="none" xmlns="http://www.w3.org/2000/svg">
<circle cx="74.5" cy="74.5" r="68.5" fill="#309EEE" fill-opacity="0.25" stroke="#309EEE" stroke-width="12"/>
<path d="M80.4113 67.8305L80.4046 67.8544L80.3995 67.8787C80.3265 68.2231 80.4716 68.5193 80.5343 68.6395C80.6199 68.8034 80.7388 68.9726 80.8685 69.1382C81.131 69.4734 81.5165 69.8925 82.0013 70.3857C82.9756 71.3767 84.426 72.742 86.2873 74.4705C86.9604 75.0956 87.6885 75.7693 88.4694 76.4919C92.0167 79.7743 96.6525 84.064 102.157 89.3671C104.269 91.4417 105.219 93.4115 105.219 95.2842C105.219 97.1577 104.268 99.1284 102.154 101.204C100.166 103.156 98.2655 104.104 96.4485 104.209C94.6458 104.313 92.7738 103.596 90.8132 101.902L69.0034 80.7527L68.6848 80.4438L68.2563 80.5592C62.876 82.0088 55.0257 82.0116 49.8752 76.8822C44.7524 71.7804 44.0892 64.0844 45.3013 58.8211C45.3706 58.5203 45.4435 58.3282 45.5054 58.2128C45.51 58.2042 45.5144 58.1963 45.5187 58.189C45.5549 58.2088 45.6036 58.239 45.6665 58.2847C45.9458 58.4878 46.3052 58.8615 46.7522 59.4071C47.1909 59.9427 47.6738 60.5932 48.2068 61.3149C48.2423 61.363 48.278 61.4114 48.3139 61.46C49.3438 62.8552 50.5414 64.4778 51.8426 65.8356C53.1744 67.2253 54.7175 68.4505 56.4194 68.8056C58.6144 69.2635 60.6096 69.4733 62.4541 69.1485C64.3259 68.8189 65.9905 67.9484 67.5336 66.3439C70.8691 62.8756 70.3226 58.7958 69.2152 54.5699C68.8019 52.9926 67.51 51.6368 66.0906 50.507C64.6688 49.3755 62.9785 48.3644 61.5461 47.5076L61.4858 47.4715C60.7541 47.0338 60.0975 46.6401 59.5578 46.2821C59.0588 45.9511 58.7122 45.6838 58.5088 45.475C58.6384 45.4245 58.8182 45.3699 59.061 45.3159C64.4453 44.1204 72.2967 44.6462 77.476 49.8043C82.5299 54.8375 81.9048 62.4856 80.4113 67.8305ZM45.4315 58.1534C45.4313 58.1528 45.4359 58.153 45.4462 58.1562C45.4369 58.1557 45.4318 58.1541 45.4315 58.1534Z" fill="#309EEE" stroke="#309EEE" stroke-width="1.5625"/>
</svg>
