<!--<svg width="23" height="21" viewBox="0 0 23 21" fill="none" xmlns="http://www.w3.org/2000/svg">-->
<!--    <path d="M3.91198 3.83831C4.52924 2.93751 4.83786 2.48711 5.29577 2.24355C5.75368 2 6.29186 2 7.36823 2H11.5H15.6318C16.7081 2 17.2464 2 17.7042 2.24355C18.1621 2.48711 18.4708 2.93751 19.0881 3.83831L19.7179 4.7575C20.5859 6.02424 21.0198 6.65763 20.9993 7.37165C20.9787 8.08567 20.509 8.69183 19.5694 9.90416L14.005 17.0845C13.2316 18.0826 12.8448 18.5816 12.3936 18.7971C11.8272 19.0676 11.1727 19.0676 10.6065 18.7971C10.1553 18.5816 9.76849 18.0826 8.99504 17.0845L3.43057 9.90416C2.49105 8.69183 2.0213 8.08567 2.0007 7.37165C1.98011 6.65763 2.41411 6.02424 3.28212 4.7575L3.91198 3.83831Z" stroke="#4EB4FF" stroke-width="2.7" stroke-linejoin="round"/>-->
<!--    <path d="M8.9571 6L8.27611 7C7.87225 7.59312 7.91495 8.3757 8.38111 8.9233L11 12" stroke="#4EB4FF" stroke-width="2.7" stroke-linecap="round" stroke-linejoin="round"/>-->
<!--</svg>-->
<svg width="23" height="20" viewBox="0 0 23 20" fill="none" xmlns="http://www.w3.org/2000/svg">
    <path d="M21.7236 13.5642H20.0076C19.4508 11.6044 17.6449 10.1648 15.5089 10.1648C13.373 10.1648 11.5671 11.6044 11.0103 13.5642H1.27637C0.571452 13.5642 0 14.1357 0 14.8405C0 15.5455 0.571452 16.1169 1.27637 16.1169H11.0103C11.5671 18.0767 13.373 19.5163 15.5089 19.5163C17.6449 19.5163 19.4508 18.0767 20.0076 16.1169H21.7236C22.4285 16.1169 23 15.5454 23 14.8405C23 14.1356 22.4285 13.5642 21.7236 13.5642ZM15.5089 16.9636C14.3383 16.9636 13.3859 16.0112 13.3859 14.8405C13.3859 13.6699 14.3383 12.7175 15.5089 12.7175C16.6796 12.7175 17.632 13.6699 17.632 14.8405C17.632 16.0112 16.6796 16.9636 15.5089 16.9636Z" fill="#4EB4FF"/>
    <path d="M21.7236 4.21261H11.9867C11.4299 2.2528 9.6239 0.813232 7.48804 0.813232C5.35214 0.813232 3.54618 2.2528 2.98938 4.21261H1.27637C0.571452 4.21257 0 4.78406 0 5.48894C0 6.19381 0.571452 6.76535 1.27637 6.76535H2.98929C3.54614 8.72516 5.35205 10.1647 7.48795 10.1647C9.62381 10.1647 11.4298 8.72516 11.9866 6.76535H21.7236C22.4285 6.76535 23 6.19385 23 5.48898C23 4.78411 22.4285 4.21261 21.7236 4.21261ZM7.488 7.6119C6.31733 7.6119 5.36499 6.65951 5.36499 5.48889C5.36499 4.31827 6.31733 3.36588 7.488 3.36588C8.65866 3.36588 9.61101 4.31827 9.61101 5.48889C9.61101 6.65951 8.65866 7.6119 7.488 7.6119Z" fill="#4EB4FF"/>
</svg>
