<svg width="24" height="20" viewBox="0 0 24 20" fill="none" xmlns="http://www.w3.org/2000/svg">
<path d="M8 2C8 0.895431 8.89543 0 10 0H14C15.1046 0 16 0.895431 16 2V6C16 7.10457 15.1046 8 14 8H13V10H21C21.5523 10 22 10.4477 22 11V14H23C23.5523 14 24 14.4477 24 15V19C24 19.5523 23.5523 20 23 20H19C18.4477 20 18 19.5523 18 19V15C18 14.4477 18.4477 14 19 14H20V12H13V14H14C14.5523 14 15 14.4477 15 15V19C15 19.5523 14.5523 20 14 20H10C9.44772 20 9 19.5523 9 19V15C9 14.4477 9.44772 14 10 14H11V12H4V14H5C5.55228 14 6 14.4477 6 15V19C6 19.5523 5.55228 20 5 20H1C0.447716 20 0 19.5523 0 19V15C0 14.4477 0.447716 14 1 14H2V11C2 10.4477 2.44772 10 3 10H11V8H10C8.89543 8 8 7.10457 8 6V2Z" fill="#4EB4FF"/>
</svg>
