<svg width="28" height="29" viewBox="0 0 28 29" fill="none" xmlns="http://www.w3.org/2000/svg">
<path d="M9.45459 17.909C9.45459 20.4196 13.2699 22.4544 17.9773 22.4544C22.6847 22.4544 26.5 20.4196 26.5 17.909C26.5 15.3984 22.6847 13.3635 17.9773 13.3635C13.2699 13.3635 9.45459 15.3984 9.45459 17.909Z" stroke="#4EB4FF" stroke-width="2.3" stroke-linecap="round" stroke-linejoin="round"/>
<path d="M9.45459 16.7727V22.6169C9.45459 25.0363 13.2699 27 17.9773 27C22.6847 27 26.5 25.0363 26.5 22.6169V16.7727" stroke="#4EB4FF" stroke-width="2.3" stroke-linecap="round" stroke-linejoin="round"/>
<path d="M1.5 5.97727C1.5 7.39849 3.125 8.71099 5.76136 9.42159C8.39773 10.1322 11.6477 10.1322 14.2841 9.42159C16.9205 8.71099 18.5455 7.39849 18.5455 5.97727C18.5455 4.55606 16.9205 3.24356 14.2841 2.53295C11.6477 1.82235 8.39773 1.82235 5.76136 2.53295C3.125 3.24356 1.5 4.55606 1.5 5.97727Z" stroke="#4EB4FF" stroke-width="2.3" stroke-linecap="round" stroke-linejoin="round"/>
<path d="M1.5 6.54541V19.803C1.5 20.9803 2.81591 21.7253 4.90909 22.4545" stroke="#4EB4FF" stroke-width="2.3" stroke-linecap="round" stroke-linejoin="round"/>
<path d="M1.5 13.3635C1.5 14.3726 2.81591 15.0113 4.90909 15.6363" stroke="#4EB4FF" stroke-width="2.3" stroke-linecap="round" stroke-linejoin="round"/>
</svg>
