<svg width="14" height="22" viewBox="0 0 14 22" fill="none" xmlns="http://www.w3.org/2000/svg">
    <path fill-rule="evenodd" clip-rule="evenodd" d="M0.487082 4.41088C0.811807 4.63697 1.16518 4.70291 1.54721 4.6087C3.34272 4.15653 4.88912 3.78696 6.39813 3.78696C8.46107 3.78696 9.67343 5.09047 9.49253 6.73912C9.35348 8.00628 8.27949 8.79069 7.3033 9.50364L7.25768 9.53694C6.24499 10.2714 5.33116 11.011 4.59306 12.0239C4.15372 12.6079 3.84811 13.2203 3.67619 13.8608C3.56159 14.2754 3.65711 14.6428 3.96271 14.963C4.26833 15.2834 4.65037 15.4434 5.1088 15.4434H6.34082C7.16218 15.4434 7.77028 14.817 8.37511 13.9173C9.06219 12.8954 9.86234 12.2802 10.7135 11.6257C11.2467 11.2158 11.7998 10.7904 12.3577 10.2401C13.1081 9.5 14.0151 8.14006 13.9998 6.23913C13.9848 4.37258 13.5653 3.37912 12.3577 2.08968C10.8592 0.489603 9.396 -1.19563e-05 7.11444 2.18979e-10C5.21123 8.69587e-06 3.94167 0.238177 2.37348 0.532375C2.11695 0.580495 1.85244 0.630114 1.57585 0.680441C1.11743 0.755799 0.735395 0.981886 0.429779 1.3587C0.143259 1.71667 0 2.13117 0 2.60217V3.45C0 3.84565 0.162358 4.16595 0.487082 4.41088ZM4.85324 17.6521C3.94031 17.6521 3.20025 18.3822 3.20025 19.2826V20.3695C3.20025 21.27 3.94031 22 4.85324 22H6.06544C6.97837 22 7.71844 21.27 7.71844 20.3695V19.2826C7.71844 18.3822 6.97837 17.6521 6.06544 17.6521H4.85324Z" fill="white"/>
</svg>
