<svg width="25" height="23" viewBox="0 0 25 23" fill="none" xmlns="http://www.w3.org/2000/svg">
    <path d="M14.5 1.5H3.5C2.39543 1.5 1.5 2.39543 1.5 3.5V11.5C1.5 12.3284 2.17157 13 3 13C3.82843 13 4.5 13.6716 4.5 14.5V15.6716C4.5 16.202 4.61161 16.6436 5.10654 16.4528C5.84192 16.1694 6.99781 15.5919 7.6 15.1C8.06231 14.7223 8.51629 14.2266 8.86451 13.8116C9.28044 13.3159 9.88426 13 10.5313 13H14.5C15.6046 13 16.5 12.1046 16.5 11V3.5C16.5 2.39543 15.6046 1.5 14.5 1.5Z" stroke="white" stroke-width="2.5"/>
    <path d="M11 17.5H14.0775C14.6629 17.5 15.217 17.7579 15.6185 18.1839C15.9996 18.5882 16.508 19.0981 17 19.5C17.5954 19.9864 18.6977 20.5909 19.4056 20.9061C19.8902 21.1219 20 20.702 20 20.1716V19C20 18.1716 20.6716 17.5 21.5 17.5V17.5C22.3284 17.5 23 16.8284 23 16V8C23 6.89543 22.1046 6 21 6H20.5" stroke="white" stroke-width="2.5" stroke-linecap="round"/>
</svg>
