<svg width="52" height="41" viewBox="0 0 52 41" fill="none" xmlns="http://www.w3.org/2000/svg">
<path fill-rule="evenodd" clip-rule="evenodd" d="M19.1263 17.8788V23.1213C19.1263 26.7204 22.9582 28.1095 25.4172 26.8559L30.5595 24.2346C33.6449 22.6619 33.6447 18.3381 30.5595 16.7655L25.4172 14.1442C22.9582 12.8907 19.1263 14.2797 19.1263 17.8788ZM22.5631 23.1213C22.5631 23.7269 23.2721 24.1097 23.8492 23.8156L28.9915 21.1943C29.5852 20.8918 29.5852 20.1083 28.9915 19.8058L23.8492 17.1845C23.2721 16.8904 22.5631 17.2732 22.5631 17.8788V23.1213Z" fill="#0F98E5"/>
<path fill-rule="evenodd" clip-rule="evenodd" d="M14.7931 3.56519C8.60369 3.56519 3.58618 7.35617 3.58618 12.0326V28.9674C3.58618 33.6437 8.60369 37.4347 14.7931 37.4347H37.2069C43.3962 37.4347 48.4138 33.6437 48.4138 28.9674V12.0326C48.4138 7.35617 43.3962 3.56519 37.2069 3.56519H14.7931ZM8.06894 12.0326C8.06894 9.22674 11.0794 6.95214 14.7931 6.95214H37.2069C40.9206 6.95214 43.931 9.22674 43.931 12.0326V28.9674C43.931 31.7733 40.9206 34.0478 37.2069 34.0478H14.7931C11.0794 34.0478 8.06894 31.7733 8.06894 28.9674V12.0326Z" fill="#0F98E5"/>
</svg>
